<svg id="Layer_1" data-name="Layer 1" xmlns="http://www.w3.org/2000/svg" viewBox="0 0 1000 1000"><title>BKash-Group-of-Logos</title><path d="M425.18,486.509C368.1,413.194,312.09,341.384,256.19,269.574c.323-.537.538-1.075.86-1.612,73.315,8.815,146.63,17.63,221.02,26.552C460.333,358.476,442.918,421.579,425.18,486.509Z" fill="#b52355"/><path d="M434,488.121c17.738-64.392,35.26-127.925,53.212-193.284,54.5,76,107.93,150.607,161.25,225.1-.322.538-.537,1.183-.86,1.72C576.755,510.589,505.912,499.516,434,488.121Z" fill="#c01e6c"/><path d="M434.425,497.581c69.122,11.073,136.74,21.823,204.465,32.68a13.767,13.767,0,0,0,.43,2.043C580.84,561.651,522.252,591,462.7,620.884,453.238,579.711,443.993,539.506,434.425,497.581Z" fill="#b52355"/><path d="M357.993,731.286c21.93-77.507,43.967-155.015,66.435-234.135,1.182,2.688,2.042,3.978,2.365,5.375,10.535,47.3,20.962,94.6,31.605,141.9,1.075,4.73,0,7.525-3.763,10.535-30.315,24.51-60.415,49.235-90.622,73.852-1.4,1.183-2.9,2.15-4.408,3.225A11.542,11.542,0,0,1,357.993,731.286Z" fill="#88223e"/><path d="M593.632,430.286c35.69-6.45,69.875-12.577,106.1-19.135-13.653,37.088-26.66,72.778-40.42,110.3C637.17,490.594,615.885,461.139,593.632,430.286Z" fill="#b52355"/><path d="M490.755,616.154q79.173-40.312,158.347-80.733c.43.323.86.753,1.29,1.075-1.935,6.02-3.87,12.148-6.127,18.06-.538,1.29-2.365,2.365-3.763,2.9Q566.65,587.29,492.69,617.014c-.43.107-.86.107-1.182.215C491.293,616.906,491.078,616.584,490.755,616.154Z" fill="#c01e6c"/><path d="M749.937,457.269h-58.8c5.59-15.158,10.857-29.67,15.8-42.893q21.93,20.64,43.645,41.065C750.367,455.979,750.152,456.624,749.937,457.269Z" fill="#c01e6c"/><path d="M339.5,392.876q-44.989-42.57-90.085-85.247c.215-.538.43-1.075.645-1.72,7.632,0,15.157-.108,22.79.107,1.182,0,2.58,1.4,3.44,2.473q31.766,40.635,63.317,81.377a13.12,13.12,0,0,1,.968,2.15C340.255,392.231,339.933,392.554,339.5,392.876Z" fill="#88223e"/></svg>