<svg version="1.1" id="Layer_1" xmlns="http://www.w3.org/2000/svg" xmlns:xlink="http://www.w3.org/1999/xlink" x="0px" y="0px" viewBox="0 0 122 54" enable-background="new 0 0 122 54" width="122" height="54" xml:space="preserve" class="d-block top-nav-logo">
    <title lang="en">bKash Logo</title>
    <g>
        <g>
            <polygon fill="#e2136e" points="82.9,25.9 86.2,40.5 107.7,29.8 		"></polygon>
            <polygon fill="#e2136e" points="89,3.8 83.2,25 107.2,28.8 		"></polygon>
            <polygon fill="#e2136e" points="62.8,0.6 88.3,3.7 82.3,25.5 		"></polygon>
            <polygon fill="#e2136e" points="62.5,4.8 65.5,4.8 73.5,15.1 		"></polygon>
            <polygon fill="#e2136e" points="108.4,29.6 100.9,19.3 112.9,17 		"></polygon>
            <polygon fill="#e2136e" points="107.2,32.5 107.9,30.3 89.2,39.9 		"></polygon>
            <polygon fill="#e2136e" points="82.4,26.3 86.3,44 74.7,53.4 		"></polygon>
            <polygon fill="#e2136e" points="111.8,22.3 118.8,22.3 113.7,17.2 		"></polygon>
        </g>
        <g>
            <path fill="#e2136e" d="M5.4,21.2h15.2v2.2H5.2v17.8c0,0-0.7-0.1-1.1-0.1c-0.4,0-0.9,0.1-0.9,0.1V23.4v-2.2v-0.1
                c0-5.2,2-8.2,7-8.5c4.5-0.3,8,2.3,10.4,3.6v2.6l-0.3,0.1c-0.4-1-5.8-5.5-9.3-5.1c-3.6,0.4-5.8,2.9-5.8,6.2
                C5.2,20,5.2,20.9,5.4,21.2L5.4,21.2z"></path>
            <path fill="#e2136e" d="M36.6,24.9c3.8-0.1,5.7,1.2,5.8,4.1c0.1,1.6-0.6,3.1-1.7,4.4l-1.9,0.1v-0.3c0.7-0.2,2.3-1.3,2.2-3.3
                s-1.6-3.6-4-3.5c0,0-0.4,0-0.6,0.1L36.6,24.9z"></path>
            <polygon fill="#e2136e" points="18.5,23 20.6,23 20.6,41.2 18.5,40.5 		"></polygon>
            <path fill="#e2136e" d="M57.3,25.5c-0.8-2.7-3.1-4.3-4.8-4.3H48v2.2H51c1.3,0,2.6-0.1,3.8,1c0.5,0.5,0.7,1,0.9,1.7
                c0.4,1.7-0.4,3.8-2.4,3.8c-0.6,0-1.3,0-1.9-0.2v0.1c0.5,0.6,0.8,1.4,1.2,2.1c1.2-0.2,2.4-0.9,3.2-1.7
                C56.9,28.9,57.6,27.3,57.3,25.5"></path>
            <path fill="#e2136e" d="M60.6,21.5c-1.3,0.2-3.3,1.3-4,4.1c-0.2,1.8,0.3,3.4,1.5,4.6c0.7,0.8,1.8,1.5,2.8,1.7
                c0.3-0.7,0.7-1.4,1.1-2.1l-0.1-0.1c-0.5,0.2-1.1,0.2-1.7,0.2c-2.1-0.1-2.4-2.2-2.1-3.8c0.3-1.4,1.5-2.8,2.8-2.9
                c1.4-0.1,3.1,1,3.4,2.5c0.2,0.8,0.2,1.6,0.2,2.4v13.2c0,0,0.6-0.1,1-0.1s1,0.1,1,0.1V21.4h-2.2v2.2c0-0.1,0.1-0.1,0-0.3
                C63.6,22,61.8,21.3,60.6,21.5"></path>
            <path fill="#e2136e" d="M47.6,21.2v2.2v17.8c0,0-0.6-0.1-1-0.1s-1,0.1-1,0.1V23.4H21.1v-2.2H47.6z"></path>
            <path fill="#e2136e" d="M20.6,41.2h-0.3c-7.8,0-12.2-4.3-12.2-8.6c0-3.6,3.3-7.8,10.9-7.8l1.3,1c-5.3,0-9.6,3.4-9.6,6.8
                c0,3,3.8,7.8,9.9,7.8V41.2z"></path>
            <polygon fill="#e2136e" points="34.8,23 36.9,23 36.9,41.2 34.8,40.5 		"></polygon>
            <path fill="#e2136e" d="M36.9,41.2h-0.3c-7.8,0-12.2-4.3-12.2-8.6c0-3.6,3.3-7.8,10.9-7.8l1.3,1c-5.3,0-9.6,3.4-9.6,6.8
                c0,3,3.8,7.8,9.9,7.8V41.2z"></path>
        </g>
    </g>
</svg>